General
Complete name                    : Jennifers.Body.2009.UNRATED.DVDRip.XviD-Emery.avi
Format                           : AVI
Format/Info                      : Audio Video Interleave
File size                        : 705 MiB
Duration                         : 1h 42mn
Overall bit rate                 : 963 Kbps
Writing application              : VirtualDubMod 1.5.10.2 (build 2540/release)
Writing library                  : VirtualDubMod build 2540/release

Video
ID                               : 0
Format                           : MPEG-4 Visual
Format profile                   : AdvancedSimple@L5
Format settings, BVOP            : Yes
Format settings, QPel            : No
Format settings, GMC             : No warppoints
Format settings, Matrix          : Default (H.263)
Muxing mode                      : Packed bitstream
Codec ID                         : XVID
Codec ID/Hint                    : XviD
Duration                         : 1h 42mn
Bit rate                         : 825 Kbps
Width                            : 624 pixels
Height                           : 336 pixels
Display aspect ratio             : 1.857
Frame rate                       : 23.976 fps
Resolution                       : 24 bits
Colorimetry                      : 4:2:0
Scan type                        : Progressive
Bits/(Pixel*Frame)               : 0.164
Stream size                      : 604 MiB (86%)
Writing library                  : XviD 1.2.1 (UTC 2008-12-04)

Audio
ID                               : 1
Format                           : MPEG Audio
Format version                   : Version 1
Format profile                   : Layer 3
Format settings, Mode            : Joint stereo / MS Stereo
Codec ID                         : 55
Codec ID/Hint                    : MP3
Duration                         : 1h 42mn
Bit rate mode                    : Constant
Bit rate                         : 128 Kbps
Channel(s)                       : 2 channels
Sampling rate                    : 48.0 KHz
Resolution                       : 16 bits
Stream size                      : 93.7 MiB (13%)
Alignment                        : Aligned on interleaves
Interleave, duration             : 42 ms (1.00 video frame)
Interleave, preload duration     : 504 ms
 
http://www.imdb.com/title/tt1131734/
Genre: Comedy | Horror | Thriller
Ratings: 5.4/10   16,457 votes  
Tagline: She's evil... and not just high school evil.
Source: NTSC DVD9

Cast:
Megan Fox ... Jennifer
Amanda Seyfried ... Needy
Johnny Simmons ... Chip
Adam Brody ... Nikolai
Sal Cortez ... Chas
Ryan Levine ... Mick
Juan Riedinger ... Dirk
Colin Askey ... Keyboardist
Chris Pratt ... Roman Duda
Juno Ruddell ... Officer Warzak
Kyle Gallner ... Colin Gray
Josh Emerson ... Jonas Konelle
J.K. Simmons ... Mr. Wroblewski
Amy Sedaris ... Needy's Mom
Cynthia Stevenson... Chip's Mom

Plot: A newly possessed cheerleader turns into a killer who specializes in
offing her male classmates. Can her best friend put an end to the horror?
